<svg width="44" height="44" viewBox="0 0 44 44" fill="none" xmlns="http://www.w3.org/2000/svg">
<path d="M22 30.6666L18.9667 27.6333L22.4334 24.1666H13.3334V19.8333H22.4334L18.9667 16.3666L22 13.3333L30.6667 22L22 30.6666ZM22 43.6666C24.9972 43.6666 27.8139 43.0975 30.45 41.9593C33.0861 40.8211 35.3792 39.2777 37.3292 37.3292C39.2792 35.3792 40.8226 33.0861 41.9594 30.45C43.0961 27.8139 43.6652 24.9972 43.6667 22C43.6667 19.0028 43.0976 16.1861 41.9594 13.55C40.8211 10.9139 39.2777 8.62081 37.3292 6.67081C35.3792 4.72081 33.0861 3.17742 30.45 2.04065C27.8139 0.903869 24.9972 0.334757 22 0.333313C19.0028 0.333313 16.1861 0.902424 13.55 2.04065C10.9139 3.17887 8.62085 4.72226 6.67085 6.67081C4.72085 8.62081 3.17674 10.9139 2.03852 13.55C0.900299 16.1861 0.331909 19.0028 0.333351 22C0.333351 24.9972 0.902462 27.8139 2.04069 30.45C3.17891 33.0861 4.72229 35.3792 6.67085 37.3292C8.62085 39.2791 10.9139 40.8233 13.55 41.9615C16.1861 43.0997 19.0028 43.6681 22 43.6666ZM22 39.3333C17.1611 39.3333 13.0625 37.6541 9.70419 34.2958C6.34586 30.9375 4.66669 26.8389 4.66669 22C4.66669 17.1611 6.34586 13.0625 9.70419 9.70415C13.0625 6.34581 17.1611 4.66665 22 4.66665C26.8389 4.66665 30.9375 6.34581 34.2959 9.70415C37.6542 13.0625 39.3334 17.1611 39.3334 22C39.3334 26.8389 37.6542 30.9375 34.2959 34.2958C30.9375 37.6541 26.8389 39.3333 22 39.3333Z" fill="white"/>
</svg>
