<svg width="36" height="36" viewBox="0 0 36 36" fill="none" xmlns="http://www.w3.org/2000/svg">
<path fill-rule="evenodd" clip-rule="evenodd" d="M17.3592 11.2704C17.3592 7.12563 20.7192 3.76562 24.864 3.76562C27.2976 3.76562 29.2392 4.91523 30.54 6.58562C31.9159 6.30361 33.2349 5.79337 34.4424 5.07603C33.9748 6.53091 32.996 7.76718 31.6872 8.55603L31.692 8.56323C32.9345 8.4131 34.1478 8.07905 35.292 7.57203L35.2896 7.57683C34.4808 8.78883 33.4656 9.85682 32.2944 10.728C32.3568 11.1528 32.3904 11.5776 32.3904 12C32.3904 20.8488 25.6488 31.14 13.2504 31.14C9.59449 31.1432 6.01502 30.0934 2.94 28.116C2.79523 28.0231 2.67213 27.9002 2.57904 27.7555C2.48595 27.6108 2.42506 27.4479 2.40047 27.2776C2.37589 27.1074 2.3882 26.9338 2.43657 26.7687C2.48493 26.6036 2.56823 26.4509 2.6808 26.3208C2.78785 26.1428 2.94395 25.9995 3.13039 25.908C3.31684 25.8165 3.52572 25.7806 3.732 25.8048C5.9304 26.064 8.124 25.7952 10.0608 24.9504C9.1055 24.5283 8.25027 23.909 7.55124 23.133C6.85222 22.3571 6.32521 21.4421 6.0048 20.448C5.94556 20.2631 5.93725 20.0657 5.98075 19.8765C6.02425 19.6873 6.11796 19.5133 6.252 19.3728C5.46326 18.6806 4.83148 17.8279 4.39895 16.8718C3.96642 15.9157 3.74312 14.8782 3.744 13.8288V13.7472C3.74394 13.4961 3.83137 13.2529 3.99124 13.0593C4.15111 12.8657 4.37344 12.7339 4.62 12.6864C4.07587 11.6364 3.79268 10.4707 3.7944 9.28802C3.7944 8.16482 3.8016 6.74883 4.5912 5.47203C4.67556 5.33676 4.78882 5.22185 4.92285 5.13554C5.05688 5.04923 5.20835 4.99366 5.3664 4.97283C5.59557 4.90055 5.84116 4.89874 6.07137 4.96763C6.30158 5.03652 6.50581 5.17294 6.6576 5.35923C9.33293 8.65032 13.1594 10.8012 17.3616 11.376V11.2704H17.3592ZM13.2504 28.74C11.4141 28.7414 9.59031 28.4389 7.8528 27.8448C9.94269 27.5001 11.9139 26.6407 13.5888 25.344C13.7643 25.2063 13.8929 25.0177 13.9569 24.8039C14.0209 24.5902 14.0171 24.3619 13.946 24.1504C13.875 23.939 13.7403 23.7547 13.5603 23.6229C13.3803 23.4911 13.1639 23.4183 12.9408 23.4144C12.1373 23.4 11.348 23.2001 10.6345 22.8304C9.92094 22.4608 9.30244 21.9313 8.8272 21.2832C9.2832 21.2472 9.7296 21.168 10.1616 21.0528C10.3971 20.9899 10.6044 20.8491 10.7497 20.6534C10.895 20.4577 10.9699 20.2186 10.9621 19.975C10.9543 19.7313 10.8643 19.4975 10.7068 19.3115C10.5493 19.1255 10.3334 18.9982 10.0944 18.9504C9.18134 18.7654 8.33423 18.34 7.64059 17.7181C6.94696 17.0962 6.43195 16.3004 6.1488 15.4128C6.6288 15.528 7.1304 15.5976 7.644 15.6144C7.87871 15.6223 8.10959 15.5535 8.30167 15.4184C8.49375 15.2833 8.63656 15.0892 8.70846 14.8657C8.78035 14.6421 8.77742 14.4012 8.70011 14.1795C8.62279 13.9577 8.47531 13.7672 8.28 13.6368C7.56384 13.1597 6.97661 12.5131 6.57049 11.7544C6.16436 10.9958 5.95191 10.1486 5.952 9.28802C5.952 8.88482 5.9592 8.52723 5.9832 8.20083C9.34145 11.628 13.8677 13.664 18.66 13.9032C18.8451 13.9126 19.0298 13.8791 19.1997 13.8051C19.3696 13.7312 19.5201 13.6189 19.6394 13.4771C19.7586 13.3353 19.8434 13.1678 19.8871 12.9877C19.9308 12.8077 19.9322 12.6199 19.8912 12.4392C19.7149 11.6898 19.7104 10.9103 19.8781 10.1589C20.0457 9.40752 20.3811 8.70379 20.8592 8.10037C21.3372 7.49695 21.9456 7.00948 22.6387 6.67443C23.3318 6.33939 24.0918 6.16544 24.8616 6.16563C27.8232 6.16563 29.988 8.90882 29.988 12.0024C29.988 19.8168 24.048 28.74 13.2504 28.74Z" fill="white"/>
</svg>
